<?xml version="1.0" encoding="UTF-8"?>
<svg xmlns="http://www.w3.org/2000/svg" xmlns:xlink="http://www.w3.org/1999/xlink" width="1200px" height="800px" viewBox="0 0 1200 800" version="1.1">
<g id="surface1">
<path style=" stroke:none;fill-rule:nonzero;fill:rgb(0%,0%,0%);fill-opacity:1;" d="M 456.09375 50 L 743.90625 50 C 792.421875 50 835.3125 70.65625 850.546875 101.28125 L 874.921875 150 L 1050 150 C 1132.734375 150 1200 194.84375 1200 250 L 1200 650 C 1200 705.15625 1132.734375 750 1050 750 L 150 750 C 67.148438 750 0 705.15625 0 650 L 0 250 C 0 194.84375 67.148438 150 150 150 L 325.078125 150 L 349.453125 101.28125 C 364.6875 70.65625 407.578125 50 456.09375 50 Z M 600 600 C 724.21875 600 825 532.8125 825 450 C 825 365.78125 724.21875 300 600 300 C 473.671875 300 375 365.78125 375 450 C 375 532.8125 473.671875 600 600 600 Z M 600 600 "/>
</g>
</svg>
