<?xml version="1.0" encoding="UTF-8"?>
<svg xmlns="http://www.w3.org/2000/svg" xmlns:xlink="http://www.w3.org/1999/xlink" width="1200px" height="800px" viewBox="0 0 1200 800" version="1.1">
<g id="surface1">
<path style=" stroke:none;fill-rule:nonzero;fill:rgb(0%,0%,0%);fill-opacity:1;" d="M 1099.167969 50 L 300.5 50 C 245.363281 50 200.667969 83.578125 200.667969 125 L 200.667969 525 C 200.667969 566.421875 245.363281 600 300.5 600 L 1099.167969 600 C 1154.304688 600 1199 566.421875 1199 525 L 1199 125 C 1199 83.578125 1154.28125 50 1099.167969 50 Z M 465.015625 150 C 501.789062 150 531.574219 172.390625 531.574219 200 C 531.574219 227.609375 503.703125 250 465.015625 250 C 428.265625 250 398.460938 227.609375 398.460938 200 C 398.460938 172.390625 430.074219 150 465.015625 150 Z M 1028.660156 486.875 C 1022.835938 495 1011.605469 500 999.332031 500 L 400.332031 500 C 387.804688 500 376.351562 494.722656 370.675781 486.328125 C 364.996094 477.941406 366.066406 467.875 373.445312 460.265625 L 519.035156 310.265625 C 525.332031 303.75 535.316406 300 545.921875 300 C 556.554688 300 566.546875 303.816406 572.816406 310.273438 L 619.300781 358.179688 L 749.792969 211.132812 C 754.117188 204.21875 764.515625 200 777.414062 200 C 788.535156 200 798.917969 204.175781 805.09375 211.132812 L 1027.015625 461.132812 C 1033.859375 468.75 1034.484375 478.59375 1028.660156 486.875 Z M 949.417969 675 L 250.582031 675 C 168.011719 675 100.832031 624.53125 100.832031 562.5 L 100.832031 187.5 C 100.832031 166.875 78.476562 150 50.917969 150 C 23.359375 150 1 166.875 1 187.5 L 1 562.5 C 1 665.9375 112.957031 750 250.582031 750 L 949.417969 750 C 976.976562 750 999.332031 733.203125 999.332031 712.5 C 999.332031 691.796875 977.078125 675 949.417969 675 Z M 949.417969 675 "/>
</g>
</svg>
