<?xml version="1.0" encoding="UTF-8"?>
<svg xmlns="http://www.w3.org/2000/svg" xmlns:xlink="http://www.w3.org/1999/xlink" width="1200px" height="800px" viewBox="0 0 1200 800" version="1.1">
<g id="surface1">
<path style=" stroke:none;fill-rule:nonzero;fill:rgb(0%,0%,0%);fill-opacity:1;" d="M 600 0 C 931.40625 0 1200 179.0625 1200 400 C 1200 620.9375 931.40625 800 600 800 C 472.734375 800 354.375 773.4375 257.109375 728.28125 C 223.125 711.09375 214.78125 681.25 238.59375 658.59375 C 262.265625 635.9375 308.90625 630.46875 342.890625 646.25 C 415.78125 680.15625 504.375 700 600 700 C 848.4375 700 1050 565.625 1050 400 C 1050 232.96875 848.4375 100 600 100 C 473.671875 100 363.28125 133.53125 281.71875 187.8125 L 353.90625 235.9375 C 389.296875 259.53125 364.21875 300 314.296875 300 L 56.25 300 C 25.195312 300 0 283.28125 0 262.5 L 0 90.53125 C 0 57.125 60.585938 40.390625 96.023438 64.015625 L 175.734375 117.15625 C 284.296875 44.828125 434.296875 0 597.890625 0 Z M 600 200 C 631.171875 200 656.25 216.71875 656.25 237.5 L 656.25 384.53125 L 806.484375 485.9375 C 830.390625 500.625 830.390625 524.375 806.484375 537.65625 C 786.5625 553.59375 750.9375 553.59375 728.90625 537.65625 L 560.15625 425.15625 C 549.609375 419.53125 543.75 410 543.75 400 L 543.75 237.5 C 543.75 216.71875 568.828125 200 600 200 Z M 600 200 "/>
</g>
</svg>
